<svg xmlns="http://www.w3.org/2000/svg" width="64" height="64" shape-rendering="geometricPrecision" text-rendering="geometricPrecision" image-rendering="optimizeQuality" fill-rule="evenodd" clip-rule="evenodd" viewBox="0 0 640 640"><path fill-rule="nonzero" d="M244.633 367.493c5.173 4.748 7.996 11.102 8.433 17.646.437 6.626-1.618 13.441-6.2 18.933 4.417-3.52 9.779-5.338 15.212-5.492 6.508-.189 13.134 2.02 18.32 6.532.07.059.306.283.684.637l-4.358 4.678 4.382-4.69c.189.178.354.367.52.556 4.937 4.878 7.464 11.197 7.677 17.646.2 5.846-1.512 11.775-5.067 16.795a24.097 24.097 0 019.933-2.67 24.901 24.901 0 0117.173 5.73c.248.2.473.4.674.578 5.031 4.5 7.689 10.547 8.031 16.76.343 6.236-1.653 12.65-5.964 17.811l-11.587 13.902a969.52 969.52 0 016.791 4.157c23.61 14.552 50.044 30.84 69.816 7.217l-47.623-35.882 11.575-15.343 51.202 38.587 4.594-1.075.91-.153c6.484-.874 11.445-3.331 15.024-7.229 2.917-3.189 5.114-7.476 6.637-12.78l-64.737-43.642 10.76-15.945 67.655 45.615c7.972-2.055 14.22-5.008 18.744-8.858 3.378-2.87 5.847-6.343 7.418-10.43l-81.344-58.193 11.126-15.638 84.84 60.697c5.315-.094 9.874-1.677 13.524-4.228 3.26-2.28 5.905-5.374 7.819-8.93a29.146 29.146 0 003.401-11.787c.39-5.693-.898-11.445-4.157-16.264a9.536 9.536 0 01-3.213-1.96c-27.461-22.749-54.343-43.194-82.395-60.899-27.614-17.41-56.516-32.292-88.477-44.268-4.985.165-9.296.13-13.028.094-12.319-.118-15.19-.142-24.355 17.823-6.826 13.359-15.767 23.363-27.189 28.855-10.83 5.209-23.433 6.19-38.02 1.949-21.59-6.272-26.646-11.433-22.843-24.508 1.04-3.59 3-7.099 5.575-11.705.673-1.205 1.394-2.516 3.177-5.859 11.185-21.059 20.953-38.02 30.508-51.603-9.968-1.145-17.988-2.763-25.854-5.161-8.705-2.646-16.76-6.095-26.717-10.83l-68.517 123.343 27.06 27.993 10.299-11.882c4.7-5.41 11.126-8.552 17.764-9.178 6.626-.626 13.453 1.229 18.969 5.8.106.082.047.047.449.401a26.382 26.382 0 018.952 17.35c.45 4.524-.271 9.154-2.232 13.36l10.465-12.26-.012-.013c.06-.07.13-.141.189-.212v-.012c.142-.165.295-.319.46-.472 4.701-5.115 11.032-7.902 17.517-8.316 6.65-.425 13.488 1.642 18.91 6.272l.011-.012c.083.071.154.142.225.201.177.142.33.295.484.46zm45.438 140.258l-11.977 14.362c-.189.225-.366.437-.543.626-4.37 4.89-10.37 7.477-16.512 7.784-6.024.295-12.237-1.618-17.174-5.74-.236-.201-.46-.39-.661-.567-5.032-4.512-7.7-10.548-8.043-16.772a25.407 25.407 0 013.26-13.866l-1.276 1.452c-.154.19-.036.024-.614.65-4.808 5.126-11.28 7.76-17.859 7.937-6.508.19-13.146-2.02-18.33-6.532l.011-.011-.012.011c-.13-.118-.26-.236-.39-.366-.118-.106-.212-.2-.307-.283l-.011.012a5.528 5.528 0 01-.508-.544c-4.937-4.878-7.477-11.197-7.69-17.646a27.457 27.457 0 012.859-13.075c-4.394 3.768-9.803 5.847-15.331 6.201a26.529 26.529 0 01-18.91-6.283l-.011.012c-.071-.06-.154-.13-.225-.201a8.71 8.71 0 01-.484-.449c-5.162-4.748-7.996-11.114-8.422-17.646a26.696 26.696 0 016.379-19.158l3.65-4.287a26.78 26.78 0 01-13.879 5.516c-6.626.626-13.453-1.24-18.969-5.8h-.011c-.142-.118-.284-.248-.426-.377l-.023-.024a26.42 26.42 0 01-8.941-17.35c-.65-6.556 1.157-13.324 5.634-18.745.118-.154.248-.295.378-.425l.011-.012 4.843-5.587-29.032-30.047-11.811 20.291-.036.071-.165.272-.07.083c-3.91 6.425-10.076 10.641-16.879 12.283-6.744 1.63-14.138.756-20.516-2.964l-.07-.071-.284-.166-.083-.047-37.359-22.654C6.732 353.663 2.48 347.462.803 340.611a28.052 28.052 0 013.012-20.823l118.395-203.34.036-.084.165-.271.07-.071c3.898-6.437 10.076-10.642 16.879-12.284 6.744-1.63 14.126-.756 20.516 2.965l.07.035.284.166.071.07 37.37 22.666c6.509 3.945 10.772 10.146 12.45 16.996a28.143 28.143 0 01-3.024 20.835l-16.89 29.02c10.146 4.867 17.953 8.304 25.713 10.666 9.33 2.846 19.358 4.429 34.347 5.492l-.036.378c35.8-38.859 76.702-35.823 184.526-27.815l5.162.39-7.016-12.06a28.113 28.113 0 01-3.024-20.823c1.678-6.85 5.941-13.051 12.45-17.008l37.37-22.654.07-.082.284-.166.071-.035c6.39-3.72 13.772-4.595 20.516-2.965 6.803 1.642 12.98 5.858 16.878 12.284l.071.082.166.272.035.071 118.395 203.341a28.06 28.06 0 013.012 20.823c-1.677 6.862-5.93 13.051-12.45 17.008l-37.358 22.666-.083.035-.283.166-.07.07c-6.379 3.72-13.773 4.595-20.517 2.965-6.803-1.642-12.969-5.847-16.878-12.284l-.071-.07-.165-.272-.036-.083-12.165-20.894-24.98 18.898c4.487 7.89 6.259 16.76 5.657 25.406a48.235 48.235 0 01-5.658 19.595c-3.283 6.082-7.925 11.468-13.748 15.543-5.906 4.122-12.921 6.85-20.859 7.56-2.669 7.476-7.098 13.842-13.275 19.11-6.756 5.752-15.485 10.027-26.198 12.815-2.338 8.457-6.023 15.543-11.15 21.142-6.543 7.146-15.13 11.634-25.937 13.228l-4.5 1.052c-29.846 45.744-66.615 23.09-99.26 2.976-3.107-1.913-6.178-3.803-9.143-5.563zM72.143 361.115l118.336-203.27a9.049 9.049 0 00.992-6.697c-.508-2.067-1.784-3.945-3.72-5.114l-37.289-22.619-.011.024-.284-.165h.012a8.65 8.65 0 00-6.32-.886c-2.007.484-3.814 1.677-4.936 3.472l.023.012-.165.272L20.433 329.402a9.057 9.057 0 00-.992 6.697c.508 2.079 1.783 3.945 3.732 5.126l37.37 22.665h-.011l.13.071.012-.023a8.581 8.581 0 006.378.933c2.008-.485 3.815-1.677 4.937-3.473l-.012-.012.154-.271h.011zm392.485-171.238a9.499 9.499 0 011.771 2.587l9.426 16.63 92.032 158.092h.012l.154.271-.012.012c1.122 1.796 2.929 2.988 4.937 3.473a8.632 8.632 0 006.378-.922l.012.024.13-.083h-.012l37.37-22.665c1.95-1.17 3.225-3.048 3.733-5.114a9.04 9.04 0 00-.993-6.697l-118.348-203.27-.165-.272.024-.012c-1.122-1.795-2.93-2.988-4.937-3.472a8.71 8.71 0 00-6.32.885h.012l-.283.178-.012-.024-37.288 22.607c-1.937 1.18-3.212 3.047-3.72 5.126a9.057 9.057 0 00.992 6.697l15.106 25.949zM129.262 390.679zm58.772-7.524h.012-.012z"/></svg>