<svg xmlns="http://www.w3.org/2000/svg" viewBox="0 0 122.88 107.32"><path d="M6.52 104.06a3.26 3.26 0 01-6.52 0V86.18c0-.11.01-.22.02-.32.05-1.86.64-3.37 1.75-4.55 1.16-1.23 2.74-1.93 4.72-2.14.17-.02.34-.02.51-.01l22.24.04V61.81c0-.11.01-.22.02-.33.05-1.18.41-2.17 1.1-2.99.85-1 2-1.52 3.44-1.55h.09v-.01h24.66V40.35c0-.17.01-.34.04-.51.14-1.42.7-2.53 1.59-3.38.91-.87 2.04-1.33 3.33-1.49.13-.02.26-.02.38-.02h25.08c0-5.09.28-10.99 0-15.99 0-.95.32-2.38 1.11-3.58.9-1.37 2.34-2.5 4.5-2.63l.36-.02h24.69a3.26 3.26 0 010 6.52H95.49V38.2c0 1.8-1.46 3.26-3.26 3.26H65.06v18.73c0 1.8-1.46 3.26-3.26 3.26H35.76v19h-.01a3.25 3.25 0 01-3.25 3.25l-25.47-.04c-.31.04-.49.07-.53.11v.09c.01.11.02.21.02.32v17.88zM58.35.25a3.297 3.297 0 014.51 2.58l2.21 14.87c.26 1.8-.98 3.48-2.79 3.74-1.8.26-3.48-.98-3.74-2.79l-.91-6.16a90.47 90.47 0 01-14.95 16.26c-8.3 7.08-17.53 12.4-26.67 15.76-1.71.63-3.6-.25-4.23-1.96-.63-1.71.25-3.6 1.96-4.23 8.44-3.1 16.97-8.03 24.65-14.57 4.93-4.2 9.51-9.07 13.49-14.55l-6.2 1.97a3.29 3.29 0 01-4.13-2.14c-.54-1.73.42-3.58 2.15-4.13L58.35.25z"/></svg>