<svg xmlns="http://www.w3.org/2000/svg" viewBox="0 0 122.88 91.26"><path d="M8.32 0h106.24c4.58 0 8.32 3.74 8.32 8.32v74.62c0 4.57-3.74 8.32-8.32 8.32H8.32C3.74 91.26 0 87.51 0 82.94V8.32C0 3.74 3.74 0 8.32 0zm46.14 72.22L32 58.61v-8.63l22.46-13.61v10.26l-13.65 7.69 13.65 7.7v10.2zm13.96 0l22.46-13.61v-8.63L68.42 36.37v10.26l13.65 7.69-13.65 7.7v10.2zm49.55-48.93H5.29v60.46c0 .64.25 1.2.67 1.63.42.42.99.67 1.63.67h108.04c.64 0 1.2-.25 1.63-.67.43-.43.67-.99.67-1.63V23.29h.04zM106.64 9.35a4.11 4.11 0 11-4.11 4.11c.01-2.27 1.85-4.11 4.11-4.11zm-27.84 0a4.11 4.11 0 110 8.22 4.11 4.11 0 010-8.22zm13.92 0a4.11 4.11 0 110 8.22 4.11 4.11 0 010-8.22z" fill-rule="evenodd" clip-rule="evenodd"/></svg>