<svg xmlns="http://www.w3.org/2000/svg" viewBox="0 0 122.88 122.88"><path d="M61.44 0C27.51 0 0 27.51 0 61.44c0 33.93 27.51 61.44 61.44 61.44 33.93 0 61.44-27.51 61.44-61.44C122.88 27.51 95.37 0 61.44 0zm44.93 36.88c.22 1.63.34 3.38.34 5.26 0 5.19-.97 11.03-3.89 18.34l-15.64 45.21c15.22-8.87 25.46-25.37 25.46-44.25 0-8.9-2.27-17.27-6.27-24.56zM62.34 65.92l-15.36 44.64a51.165 51.165 0 0031.46-.81c-.14-.22-.26-.45-.37-.71L62.34 65.92zM96 58.86c0-6.33-2.27-10.71-4.22-14.12-2.6-4.22-5.03-7.79-5.03-12.01 0-4.71 3.57-9.09 8.6-9.09.23 0 .44.03.66.04-9.11-8.35-21.25-13.44-34.57-13.44-17.89 0-33.62 9.18-42.78 23.08 1.2.04 2.33.06 3.3.06 5.35 0 13.65-.65 13.65-.65 2.76-.16 3.08 3.89.33 4.22 0 0-2.77.32-5.86.49L48.72 92.9l11.21-33.6-7.98-21.86c-2.76-.16-5.37-.49-5.37-.49-2.76-.16-2.44-4.38.32-4.22 0 0 8.45.65 13.48.65 5.35 0 13.65-.65 13.65-.65 2.76-.16 3.08 3.89.33 4.22 0 0-2.78.32-5.86.49L87 92.47l5.28-16.74C94.63 68.42 96 63.24 96 58.86zm-85.76 2.58c0 20.27 11.78 37.78 28.86 46.08L14.67 40.6a51.015 51.015 0 00-4.43 20.84zm51.2-57.75c7.8 0 15.36 1.53 22.48 4.54a58.51 58.51 0 019.81 5.32c3.06 2.07 5.94 4.44 8.55 7.05 2.61 2.61 4.99 5.49 7.05 8.55 2.09 3.09 3.88 6.39 5.32 9.81 3.01 7.12 4.54 14.68 4.54 22.48 0 7.8-1.53 15.36-4.54 22.48a58.51 58.51 0 01-5.32 9.81 58.368 58.368 0 01-7.05 8.55 57.737 57.737 0 01-8.55 7.05 57.105 57.105 0 01-9.81 5.32c-7.12 3.01-14.68 4.54-22.48 4.54-7.8 0-15.36-1.53-22.48-4.54a58.51 58.51 0 01-9.81-5.32 58.368 58.368 0 01-8.55-7.05 57.737 57.737 0 01-7.05-8.55 57.105 57.105 0 01-5.32-9.81C5.21 76.8 3.69 69.24 3.69 61.44c0-7.8 1.53-15.36 4.54-22.48a58.51 58.51 0 015.32-9.81c2.07-3.06 4.44-5.94 7.05-8.55 2.61-2.61 5.49-4.99 8.55-7.05 3.09-2.09 6.39-3.88 9.81-5.32 7.12-3.02 14.68-4.54 22.48-4.54z" fill="#32373c"/></svg>